<svg width="43" height="74" viewBox="0 0 43 74" fill="none" xmlns="http://www.w3.org/2000/svg">
<path d="M11.9432 17.1316C17.891 23.0901 24.8955 29.9166 28.0606 37.309C31.4121 45.1401 28.4652 54.0719 24.9004 59.7738C21.3356 65.4757 19.0041 70.1298 20.1711 71.0673C21.3381 72.0049 29.4017 66.2838 31.2503 56.544C33.2582 45.9626 32.2212 37.8509 24.1232 28.1566C15.123 17.381 6.11304 10.4778 2.54827 8.0704C-1.0165 5.66302 -1.59755 -1.30733 5.78696 0.21526C13.1739 1.73545 35.6535 11.8733 41.16 23.0254C46.6665 34.1775 35.9771 57.3688 32.8022 62.7542C37.4678 51.5398 44.3987 33.6068 39.3458 23.7855C34.2928 13.9641 14.7283 5.40886 9.99898 3.9534C5.26966 2.49795 1.12384 1.92488 3.32546 4.77824C5.52709 7.6316 11.6171 10.8614 19.6513 19.1625C27.6855 27.4637 32.3486 34.0528 34.1629 42.0997C35.9772 50.1467 33.9692 59.6515 30.4044 65.5428C26.8397 71.4342 21.6592 75.1747 18.3544 73.2733C15.0495 71.3719 21.3552 62.0469 24.2507 56.6087C27.357 50.7773 30.277 42.2244 24.8342 33.8609C19.3914 25.4975 15.959 21.5052 11.9407 17.134L11.9432 17.1316Z" fill="url(#paint0_linear_366_434)"/>
<defs>
<linearGradient id="paint0_linear_366_434" x1="8.75352" y1="-2.00749" x2="37.2219" y2="69.6816" gradientUnits="userSpaceOnUse">
<stop offset="0.21" stop-color="#29C5F6"/>
<stop offset="0.51" stop-color="#1B88DD"/>
<stop offset="0.87" stop-color="#29C5F6"/>
</linearGradient>
</defs>
</svg>
