<svg width="685" height="1210" viewBox="0 0 685 1210" fill="none" xmlns="http://www.w3.org/2000/svg">
<path d="M191.549 280.991C286.942 378.721 399.282 490.688 450.046 611.937C503.798 740.382 456.534 886.88 399.361 980.402C342.188 1073.92 304.794 1150.26 323.51 1165.64C342.227 1181.01 471.555 1087.18 501.203 927.427C533.407 753.872 516.774 620.825 386.896 461.821C242.548 285.081 98.043 171.855 40.87 132.37C-16.3029 92.8842 -25.622 -21.4427 92.8132 3.53067C211.288 28.4647 571.823 194.744 660.139 377.659C748.454 560.574 577.014 940.956 526.093 1029.29C600.921 845.349 712.082 551.214 631.041 390.126C550 229.038 236.218 88.7154 160.367 64.8432C84.5166 40.971 18.0245 31.5716 53.3349 78.3721C88.6453 125.173 186.319 178.148 315.174 314.301C444.03 450.455 518.819 558.529 547.916 690.514C577.014 822.499 544.81 978.396 487.637 1075.03C430.464 1171.65 347.378 1233.01 294.373 1201.82C241.369 1170.63 342.503 1017.68 388.941 928.489C438.761 832.843 485.592 692.559 398.299 555.383C311.006 418.206 255.957 352.725 191.509 281.03L191.549 280.991Z" fill="url(#paint0_linear_335_7753)"/>
<defs>
<linearGradient id="paint0_linear_335_7753" x1="140.392" y1="-32.9265" x2="614.946" y2="1135.61" gradientUnits="userSpaceOnUse">
<stop offset="0.21" stop-color="#29C5F6"/>
<stop offset="0.51" stop-color="#1B88DD"/>
<stop offset="0.87" stop-color="#29C5F6"/>
</linearGradient>
</defs>
</svg>
