<svg width="101" height="100" viewBox="0 0 101 100" fill="none" xmlns="http://www.w3.org/2000/svg">
<path
    d="M50.5 98.963H49.5V98.9901C22.7983 98.4621 1.5 76.8338 1.5 50C1.5 22.8326 23.3686 1 50.5 1C77.6324 1 99.5 22.7965 99.5 49.963C99.5 77.1309 77.6679 98.963 50.5 98.963Z"
    fill="#0D141E"
    stroke="url(#paint0_linear_178_2884)"
    stroke-width="2"
  />
<path
    d="M41.4432 33.1316C47.391 39.0901 54.3955 45.9166 57.5606 53.309C60.9121 61.1401 57.9652 70.0719 54.4004 75.7738C50.8356 81.4757 48.5041 86.1298 49.6711 87.0673C50.8381 88.0049 58.9017 82.2838 60.7503 72.544C62.7582 61.9626 61.7212 53.8509 53.6232 44.1566C44.623 33.381 35.613 26.4778 32.0483 24.0704C28.4835 21.663 27.9025 14.6927 35.287 16.2153C42.6739 17.7355 65.1535 27.8733 70.66 39.0254C76.1665 50.1775 65.4771 73.3688 62.3022 78.7542C66.9678 67.5398 73.8987 49.6068 68.8458 39.7855C63.7928 29.9641 44.2283 21.4089 39.499 19.9534C34.7697 18.4979 30.6238 17.9249 32.8255 20.7782C35.0271 23.6316 41.1171 26.8614 49.1513 35.1625C57.1855 43.4637 61.8486 50.0528 63.6629 58.0997C65.4772 66.1467 63.4692 75.6515 59.9044 81.5428C56.3397 87.4342 51.1592 91.1747 47.8544 89.2733C44.5495 87.3719 50.8552 78.0469 53.7507 72.6087C56.857 66.7773 59.777 58.2244 54.3342 49.8609C48.8914 41.4975 45.459 37.5052 41.4407 33.134L41.4432 33.1316Z"
    fill="url(#paint1_linear_178_2884)"
  />
<defs>
<linearGradient id="paint0_linear_178_2884" x1="50.5" y1="0" x2="50.5" y2="100" gradientUnits="userSpaceOnUse">
<stop stop-color="#4BD4FF" />
<stop offset="1" stop-color="#007AD5" />
</linearGradient>
<linearGradient id="paint1_linear_178_2884" x1="38.2535" y1="13.9925" x2="66.7219" y2="85.6816" gradientUnits="userSpaceOnUse">
<stop offset="0.21" stop-color="#29C5F6" />
<stop offset="0.51" stop-color="#1B88DD" />
<stop offset="0.87" stop-color="#29C5F6" />
</linearGradient>
</defs>
</svg>
