<svg width="16" height="23" viewBox="0 0 16 23" fill="none" xmlns="http://www.w3.org/2000/svg">
<path d="M12.794 2.13C11.374 0.75 9.51401 0 7.54401 0C7.46401 0 7.38401 0 7.30401 0C2.65401 0.15 -1.01599 4.66 0.25401 9.48C0.64401 10.95 1.55401 12.21 2.64401 13.28C3.49401 14.11 4.12401 15.16 4.49401 16.32C4.64401 16.79 5.08401 17.1 5.57401 17.1H9.46401C9.95401 17.1 10.394 16.79 10.544 16.33C10.924 15.14 11.594 14.05 12.524 13.19C13.454 12.33 14.194 11.44 14.594 10.31C15.674 7.27 14.924 4.19 12.794 2.13Z" fill="url(#paint0_linear_366_432)"/>
<path d="M4.89404 21.3999C4.89404 22.2399 5.57404 22.9299 6.42404 22.9299H8.67404C9.51404 22.9299 10.204 22.2499 10.204 21.3999V21.2499C10.204 20.6199 9.69404 20.1099 9.06404 20.1099H6.05404C5.42404 20.1099 4.91404 20.6199 4.91404 21.2499V21.3999H4.89404Z" fill="url(#paint1_linear_366_432)"/>
<defs>
<linearGradient id="paint0_linear_366_432" x1="7.54214" y1="0" x2="7.54214" y2="22.9299" gradientUnits="userSpaceOnUse">
<stop stop-color="#4BD4FF"/>
<stop offset="1" stop-color="#007AD5"/>
</linearGradient>
<linearGradient id="paint1_linear_366_432" x1="7.54214" y1="0" x2="7.54214" y2="22.9299" gradientUnits="userSpaceOnUse">
<stop stop-color="#4BD4FF"/>
<stop offset="1" stop-color="#007AD5"/>
</linearGradient>
</defs>
</svg>
