<svg width="16" height="16" viewBox="0 0 16 16" fill="none" xmlns="http://www.w3.org/2000/svg">
<path d="M12.2635 1.41421C13.0445 0.633165 14.3108 0.633165 15.0919 1.41421C15.8729 2.19526 15.8729 3.46159 15.0919 4.24264L4.24264 15.0919C3.46159 15.8729 2.19526 15.8729 1.41421 15.0919C0.633165 14.3108 0.633165 13.0445 1.41421 12.2635L12.2635 1.41421Z" fill="#FF4FD8"/>
<path d="M15.0921 12.2635C15.8731 13.0445 15.8731 14.3108 15.0921 15.0919C14.311 15.8729 13.0447 15.8729 12.2636 15.0919L1.4144 4.24264C0.633351 3.4616 0.633351 2.19527 1.4144 1.41422C2.19545 0.633169 3.46178 0.633169 4.24283 1.41422L15.0921 12.2635Z" fill="#FF4FD8"/>
</svg>
