<svg width="34" height="34" viewBox="0 0 34 34" fill="none" xmlns="http://www.w3.org/2000/svg">
<circle cx="17" cy="17" r="15.5" stroke="#465A79" stroke-width="3"/>
<path d="M18.5 8C18.5 7.17157 17.8284 6.5 17 6.5C16.1716 6.5 15.5 7.17157 15.5 8H18.5ZM17 18H15.5V18.6599L15.9864 19.1057L17 18ZM21.9864 24.6057C22.5971 25.1655 23.5459 25.1243 24.1057 24.5136C24.6655 23.9029 24.6243 22.9541 24.0136 22.3943L21.9864 24.6057ZM15.5 8V18H18.5V8H15.5ZM15.9864 19.1057L21.9864 24.6057L24.0136 22.3943L18.0136 16.8943L15.9864 19.1057Z" fill="#465A79"/>
</svg>
