<svg width="180" height="106" viewBox="0 0 180 106" fill="none" xmlns="http://www.w3.org/2000/svg">
<path d="M0 67.6682H8.12973C11.4256 67.6682 13.4979 69.2796 13.4979 72.015C13.4979 73.958 12.4872 75.2622 11.0277 75.7986C13.4193 76.1814 15.066 77.8952 15.066 80.5793C15.066 83.5461 12.7809 85.5648 8.92767 85.5648H0V67.666V67.6682ZM7.75967 75.1598C10.0448 75.1598 11.3469 74.1872 11.3469 72.3978C11.3469 70.6083 10.0448 69.5601 7.75967 69.5601H2.15328V75.1598H7.75967ZM8.52985 83.6752C11.2128 83.6752 12.7555 82.4734 12.7555 80.2989C12.7555 78.1244 11.2151 77.0005 8.52985 77.0005H2.15328V83.6752H8.52985Z" fill="#29C5F6"/>
<path d="M37.0129 76.6174C37.0129 81.8855 32.9746 85.8739 27.6065 85.8739C22.2383 85.8739 18.2278 81.8855 18.2278 76.6174C18.2278 71.3492 22.266 67.3608 27.6065 67.3608C32.9469 67.3608 37.0129 71.3492 37.0129 76.6174ZM34.8064 76.6174C34.8064 72.4242 31.6447 69.3038 27.6065 69.3038C23.5682 69.3038 20.4319 72.4242 20.4319 76.6174C20.4319 80.8105 23.5936 83.9309 27.6065 83.9309C31.6193 83.9309 34.8064 80.8105 34.8064 76.6174Z" fill="#29C5F6"/>
<path d="M59.4384 76.6174C59.4384 81.8855 55.4002 85.8739 50.032 85.8739C44.6638 85.8739 40.6533 81.8855 40.6533 76.6174C40.6533 71.3492 44.6916 67.3608 50.032 67.3608C55.3724 67.3608 59.4384 71.3492 59.4384 76.6174ZM57.2319 76.6174C57.2319 72.4242 54.0703 69.3038 50.032 69.3038C45.9937 69.3038 42.8575 72.4242 42.8575 76.6174C42.8575 80.8105 46.0192 83.9309 50.032 83.9309C54.0448 83.9309 57.2319 80.8105 57.2319 76.6174Z" fill="#29C5F6"/>
<path d="M63.8469 67.668H65.9724L72.5618 76.2079L79.1512 67.668H81.2512V85.5668H79.1257V70.8128L73.2279 78.4335H71.9258L65.9748 70.8128V85.5668H63.8492V67.668H63.8469Z" fill="#29C5F6"/>
<path d="M86.3787 67.6682H99.2128V69.5601H88.5319V75.0307H97.2746V76.9226H88.5319V83.673H99.6129V85.5648H86.381V67.666L86.3787 67.6682Z" fill="#29C5F6"/>
<path d="M103.383 67.668H111.725C115.472 67.668 117.651 69.6889 117.651 72.5778C117.651 75.0327 116.136 76.9 113.319 77.4097L119.298 85.5668H116.747L110.955 77.6145H105.534V85.5668H103.38V67.668H103.383ZM111.593 75.7471C114.064 75.7471 115.472 74.6477 115.472 72.6535C115.472 70.6593 114.064 69.5598 111.593 69.5598H105.536V75.7471H111.593Z" fill="#29C5F6"/>
<path d="M129.342 67.5659H131.389L139.653 85.5671H137.368L135.108 80.7352H125.542L123.336 85.5671H121.079L129.342 67.5659ZM134.417 78.8923L130.351 70.1722L126.285 78.8923H134.415H134.417Z" fill="#29C5F6"/>
<path d="M142.972 67.668H144.832L156.336 81.9612V67.668H158.436V85.5668H156.602L145.07 71.2224V85.5668H142.97V67.668H142.972Z" fill="#29C5F6"/>
<path d="M162.793 76.6174C162.793 71.2224 166.938 67.3608 172.385 67.3608C174.723 67.3608 176.664 67.9239 178.257 69.0234V71.12C176.504 69.8936 174.51 69.3038 172.519 69.3038C168.24 69.3038 165 72.3463 165 76.6419C165 80.9374 168.296 83.9287 172.334 83.9287C174.3 83.9287 176.187 83.3656 177.462 82.1393V75.2864H179.587V82.9583C178.125 84.5942 175.521 85.8739 172.334 85.8739C166.966 85.8739 162.796 82.0636 162.796 76.6174H162.793Z" fill="#29C5F6"/>
<path d="M52 100.735C52 97.7928 54.262 95.6851 57.2317 95.6851C58.3188 95.6851 59.2462 95.9076 60.058 96.3973V97.5546C59.2462 97.0383 58.3766 96.7467 57.2456 96.7467C54.9697 96.7467 53.2027 98.4338 53.2027 100.735C53.2027 103.036 54.9859 104.723 57.2895 104.723C58.4483 104.723 59.4359 104.416 60.2754 103.775V104.933C59.4636 105.491 58.4205 105.783 57.2317 105.783C54.2759 105.783 52 103.704 52 100.733V100.735Z" fill="white"/>
<path d="M68.5257 95.7964H69.6428L74.1506 105.616H72.904L71.6712 102.981H66.4534L65.2507 105.616H64.0179L68.5257 95.7964ZM71.2942 101.975L69.0762 97.2186L66.8581 101.975H71.2942Z" fill="white"/>
<path d="M78.5702 95.8523H82.8467C84.9329 95.8523 86.1217 96.983 86.1217 98.5854C86.1217 100.188 84.9329 101.361 82.8467 101.361H79.7451V105.614H78.5702V95.8501V95.8523ZM82.7588 100.33C84.1511 100.33 84.9468 99.7294 84.9468 98.6144C84.9468 97.4993 84.1488 96.885 82.7588 96.885H79.7451V100.33H82.7588Z" fill="white"/>
<path d="M90.8771 95.8521H92.052V105.616H90.8771V95.8521Z" fill="white"/>
<path d="M100.094 96.8848H96.629V95.8521H104.775V96.8848H101.283V105.616H100.094V96.8848Z" fill="white"/>
<path d="M111.358 95.7964H112.475L116.982 105.616H115.736L114.503 102.981H109.285L108.082 105.616H106.85L111.358 95.7964ZM114.126 101.975L111.908 97.2186L109.69 101.975H114.126Z" fill="white"/>
<path d="M121.402 95.8521H122.577V104.583H128.186V105.616H121.402V95.8521Z" fill="white"/>
<path d="M82.6319 12.1829C86.9307 16.4202 91.9931 21.2748 94.2807 26.5317C96.703 32.1007 94.5731 38.4524 91.9967 42.5073C89.4203 46.5621 87.7351 49.8718 88.5786 50.5385C89.422 51.2052 95.25 47.1368 96.586 40.2104C98.0373 32.6856 97.2877 26.9171 91.435 20.0232C84.9301 12.3602 78.4182 7.45112 75.8418 5.73915C73.2653 4.02718 72.8454 -0.92969 78.1825 0.153079C83.5214 1.23414 99.7685 8.44351 103.748 16.3742C107.728 24.3048 100.002 40.797 97.7077 44.6268C101.08 36.6518 106.089 23.899 102.437 16.9147C98.785 9.9304 84.6448 3.84643 81.2267 2.81141C77.8086 1.77638 74.8123 1.36885 76.4035 3.39798C77.9947 5.4271 82.3962 7.72394 88.2029 13.6272C94.0096 19.5304 97.3799 24.2161 98.6911 29.9386C100.002 35.6611 98.5511 42.4203 95.9747 46.6099C93.3983 50.7994 89.6542 53.4594 87.2656 52.1073C84.877 50.7551 89.4344 44.1238 91.5271 40.2565C93.7722 36.1096 95.8826 30.0273 91.9488 24.0797C88.0151 18.1322 85.5344 15.2931 82.6301 12.1846L82.6319 12.1829Z" fill="url(#paint0_linear_335_7415)"/>
<defs>
<linearGradient id="paint0_linear_335_7415" x1="80.3266" y1="-1.42759" x2="100.333" y2="49.7754" gradientUnits="userSpaceOnUse">
<stop offset="0.21" stop-color="#29C5F6"/>
<stop offset="0.51" stop-color="#1B88DD"/>
<stop offset="0.87" stop-color="#29C5F6"/>
</linearGradient>
</defs>
</svg>
