<svg width="158" height="37" viewBox="0 0 158 37" fill="none" xmlns="http://www.w3.org/2000/svg">
<path d="M34.4082 4.96739H40.003C42.2712 4.96739 43.6973 6.10386 43.6973 8.03302C43.6973 9.40337 43.0018 10.3232 41.9974 10.7015C43.6432 10.9715 44.7765 12.1802 44.7765 14.0732C44.7765 16.1656 43.2039 17.5894 40.5521 17.5894H34.4082V4.96582V4.96739ZM39.7483 10.251C41.3209 10.251 42.2171 9.56505 42.2171 8.30301C42.2171 7.04097 41.3209 6.30164 39.7483 6.30164H35.8901V10.251H39.7483ZM40.2784 16.2567C42.1247 16.2567 43.1864 15.409 43.1864 13.8755C43.1864 12.3419 42.1263 11.5492 40.2784 11.5492H35.8901V16.2567H40.2784Z" fill="#29C5F6"/>
<path d="M59.8799 11.2792C59.8799 14.9947 57.1008 17.8076 53.4065 17.8076C49.7122 17.8076 46.9521 14.9947 46.9521 11.2792C46.9521 7.5637 49.7313 4.75079 53.4065 4.75079C57.0817 4.75079 59.8799 7.5637 59.8799 11.2792ZM58.3614 11.2792C58.3614 8.32187 56.1856 6.12115 53.4065 6.12115C50.6274 6.12115 48.469 8.32187 48.469 11.2792C48.469 14.2365 50.6449 16.4372 53.4065 16.4372C56.1681 16.4372 58.3614 14.2365 58.3614 11.2792Z" fill="#29C5F6"/>
<path d="M75.3125 11.2792C75.3125 14.9947 72.5334 17.8076 68.8391 17.8076C65.1448 17.8076 62.3848 14.9947 62.3848 11.2792C62.3848 7.5637 65.1639 4.75079 68.8391 4.75079C72.5143 4.75079 75.3125 7.5637 75.3125 11.2792ZM73.794 11.2792C73.794 8.32187 71.6182 6.12115 68.8391 6.12115C66.06 6.12115 63.9017 8.32187 63.9017 11.2792C63.9017 14.2365 66.0775 16.4372 68.8391 16.4372C71.6007 16.4372 73.794 14.2365 73.794 11.2792Z" fill="#29C5F6"/>
<path d="M78.3477 4.96735H79.8104L84.3452 10.9903L88.8799 4.96735H90.3252V17.5909H88.8624V7.18534L84.8036 12.56H83.9075L79.812 7.18534V17.5909H78.3492V4.96735H78.3477Z" fill="#29C5F6"/>
<path d="M93.8525 4.96739H102.685V6.30164H95.3344V10.16H101.351V11.4942H95.3344V16.2551H102.96V17.5894H93.8541V4.96582L93.8525 4.96739Z" fill="#29C5F6"/>
<path d="M105.555 4.96735H111.297C113.875 4.96735 115.374 6.39264 115.374 8.43011C115.374 10.1615 114.332 11.4785 112.393 11.8379L116.508 17.5909H114.752L110.767 11.9823H107.036V17.5909H105.554V4.96735H105.555ZM111.206 10.6654C112.906 10.6654 113.875 9.88993 113.875 8.48348C113.875 7.07702 112.906 6.30159 111.206 6.30159H107.037V10.6654H111.206Z" fill="#29C5F6"/>
<path d="M123.422 4.89514H124.83L130.517 17.5909H128.945L127.39 14.1831H120.806L119.288 17.5909H117.734L123.422 4.89514ZM126.914 12.8834L124.115 6.73327L121.317 12.8834H126.912H126.914Z" fill="#29C5F6"/>
<path d="M132.8 4.96735H134.08L141.997 15.048V4.96735H143.443V17.5909H142.18L134.244 7.47416V17.5909H132.799V4.96735H132.8Z" fill="#29C5F6"/>
<path d="M146.441 11.2792C146.441 7.47423 149.294 4.75079 153.042 4.75079C154.651 4.75079 155.987 5.14793 157.083 5.92336V7.40202C155.877 6.53711 154.505 6.12115 153.134 6.12115C150.19 6.12115 147.96 8.26692 147.96 11.2964C147.96 14.326 150.228 16.4357 153.007 16.4357C154.36 16.4357 155.659 16.0385 156.536 15.1736V10.3405H157.999V15.7513C156.993 16.905 155.201 17.8076 153.007 17.8076C149.313 17.8076 146.443 15.1202 146.443 11.2792H146.441Z" fill="#29C5F6"/>
<path d="M34.4082 28.2887C34.4082 26.2136 35.9649 24.7271 38.0086 24.7271C38.7567 24.7271 39.395 24.884 39.9537 25.2294V26.0456C39.395 25.6814 38.7965 25.4758 38.0182 25.4758C36.4519 25.4758 35.2359 26.6656 35.2359 28.2887C35.2359 29.9118 36.4631 31.1016 38.0484 31.1016C38.8459 31.1016 39.5255 30.885 40.1033 30.4329V31.2492C39.5446 31.6432 38.8268 31.8488 38.0086 31.8488C35.9744 31.8488 34.4082 30.3827 34.4082 28.2871V28.2887Z" fill="white"/>
<path d="M45.7809 24.8055H46.5497L49.6519 31.7311H48.794L47.9456 29.8725H44.3548L43.5271 31.7311H42.6787L45.7809 24.8055ZM47.6862 29.163L46.1597 25.8086L44.6333 29.163H47.6862Z" fill="white"/>
<path d="M52.6934 24.8448H55.6364C57.0721 24.8448 57.8903 25.6422 57.8903 26.7724C57.8903 27.9026 57.0721 28.7298 55.6364 28.7298H53.5019V31.7295H52.6934V24.8433V24.8448ZM55.5759 28.0031C56.5341 28.0031 57.0817 27.5792 57.0817 26.7928C57.0817 26.0064 56.5325 25.5732 55.5759 25.5732H53.5019V28.0031H55.5759Z" fill="white"/>
<path d="M61.1631 24.8448H61.9717V31.7311H61.1631V24.8448Z" fill="white"/>
<path d="M67.5055 25.5731H65.1211V24.8448H70.727V25.5731H68.3236V31.7311H67.5055V25.5731Z" fill="white"/>
<path d="M75.2575 24.8055H76.0263L79.1285 31.7311H78.2706L77.4222 29.8725H73.8313L73.0036 31.7311H72.1553L75.2575 24.8055ZM77.1627 29.163L75.6363 25.8086L74.1099 29.163H77.1627Z" fill="white"/>
<path d="M82.1709 24.8448H82.9795V31.0027H86.8393V31.7311H82.1709V24.8448Z" fill="white"/>
<path d="M5.9404 8.59227C8.89877 11.5807 12.3827 15.0045 13.957 18.7121C15.624 22.6398 14.1582 27.1195 12.3852 29.9792C10.6121 32.839 9.4524 35.1732 10.0329 35.6435C10.6133 36.1137 14.6241 33.2443 15.5435 28.3593C16.5423 23.0523 16.0264 18.9839 11.9986 14.1218C7.52202 8.71734 3.04056 5.25507 1.26748 4.04767C-0.505593 2.84026 -0.794603 -0.655685 2.87837 0.107963C6.55256 0.870408 17.7337 5.95498 20.4725 11.5483C23.2114 17.1415 17.8946 28.773 16.3154 31.4741C18.636 25.8495 22.0834 16.8553 19.5701 11.9295C17.0569 7.00364 7.32569 2.71278 4.97338 1.98281C2.62107 1.25283 0.558985 0.965413 1.65405 2.3965C2.74911 3.82759 5.77821 5.44749 9.77434 9.61087C13.7705 13.7743 16.0898 17.079 16.9922 21.1149C17.8946 25.1508 16.8959 29.9179 15.1228 32.8727C13.3497 35.8274 10.7731 37.7035 9.12925 36.7498C7.48544 35.7962 10.6218 31.1193 12.062 28.3918C13.6071 25.4671 15.0594 21.1774 12.3522 16.9828C9.64507 12.7881 7.93785 10.7858 5.93918 8.59348L5.9404 8.59227Z" fill="url(#paint0_linear_504_1399)"/>
<defs>
<linearGradient id="paint0_linear_504_1399" x1="4.3539" y1="-1.00684" x2="18.7185" y2="34.8664" gradientUnits="userSpaceOnUse">
<stop offset="0.21" stop-color="#29C5F6"/>
<stop offset="0.51" stop-color="#1B88DD"/>
<stop offset="0.87" stop-color="#29C5F6"/>
</linearGradient>
</defs>
</svg>
