<svg width="18" height="24" viewBox="0 0 18 24" fill="none" xmlns="http://www.w3.org/2000/svg">
<path fill-rule="evenodd" clip-rule="evenodd" d="M11.4793 8.35965L13.6513 7.77767L13.6723 7.80133C13.9642 7.7158 14.2131 7.52465 14.3631 7.26485L15.4731 5.34227C15.7881 4.79667 16.4848 4.61 17.0304 4.925C17.3594 5.115 17.5675 5.45454 17.6031 5.83301C17.7193 7.03172 17.488 8.27229 16.838 9.39812C15.788 11.2168 13.9241 12.2653 11.9738 12.3632C11.5966 12.3765 11.2694 12.6032 11.0844 12.9237L5.90442 21.8957C5.14942 23.2034 3.46921 23.6536 2.16151 22.8986C0.853813 22.1436 0.403602 20.4634 1.1586 19.1557L6.3386 10.1837C6.5236 9.86322 6.54772 9.46145 6.37925 9.13325C5.48897 7.39526 5.465 5.25677 6.515 3.43812C7.165 2.31229 8.12873 1.48306 9.22861 0.998013C9.57413 0.839545 9.97224 0.85 10.3013 1.04C10.8469 1.355 11.0336 2.05167 10.7186 2.59727L9.6136 4.51118C9.4636 4.77099 9.41752 5.0908 9.49439 5.37767L10.0764 7.54965C10.2411 8.16436 10.8646 8.52436 11.4793 8.35965ZM3.19615 21.1865C3.67444 21.4627 4.28604 21.2988 4.56218 20.8205C4.83832 20.3422 4.67444 19.7306 4.19615 19.4545C3.71786 19.1783 3.10627 19.3422 2.83013 19.8205C2.55398 20.2988 2.71786 20.9104 3.19615 21.1865Z" fill="url(#paint0_linear_366_424)"/>
<defs>
<linearGradient id="paint0_linear_366_424" x1="13.6615" y1="2.98" x2="2.16151" y2="22.8986" gradientUnits="userSpaceOnUse">
<stop stop-color="#4BD4FF"/>
<stop offset="1" stop-color="#007AD5"/>
</linearGradient>
</defs>
</svg>
